<svg width="23" height="23" viewBox="0 0 23 23" fill="none" xmlns="http://www.w3.org/2000/svg">
<path d="M14.375 0.884615C14.375 0.396056 14.8041 0 15.3333 0C15.8626 0 16.2917 0.396056 16.2917 0.884615V4.42308C16.2917 4.91164 15.8626 5.30769 15.3333 5.30769C14.8041 5.30769 14.375 4.91164 14.375 4.42308V0.884615Z" fill="#D5D5D5"/>
<path d="M13.4167 1.7997C12.8144 1.77878 12.1762 1.76923 11.5 1.76923C10.8238 1.76923 10.1856 1.77878 9.58333 1.7997V4.42308C9.58333 5.4002 8.72521 6.19231 7.66667 6.19231C6.60812 6.19231 5.75 5.4002 5.75 4.42308V2.19C2.38846 2.86856 0.869633 4.48679 0.295225 7.8739C0.207439 8.39155 0.653987 8.84615 1.2216 8.84615H21.7784C22.346 8.84615 22.7926 8.39155 22.7048 7.8739C22.1304 4.48679 20.6115 2.86856 17.25 2.19V4.42308C17.25 5.4002 16.3919 6.19231 15.3333 6.19231C14.2748 6.19231 13.4167 5.4002 13.4167 4.42308V1.7997Z" fill="#D5D5D5"/>
<path fill-rule="evenodd" clip-rule="evenodd" d="M11.5 23C2.02975 23 0 21.1264 0 12.3846C0 12.0699 0.0026304 11.7641 0.00814361 11.467C0.0169674 10.9915 0.44071 10.6154 0.95596 10.6154H22.044C22.5593 10.6154 22.983 10.9915 22.9919 11.467C22.9974 11.7641 23 12.0699 23 12.3846C23 21.1264 20.9702 23 11.5 23ZM4.79167 14.1538C4.79167 13.6653 5.22073 13.2692 5.75 13.2692H8.625C9.15427 13.2692 9.58333 13.6653 9.58333 14.1538C9.58333 14.6424 9.15427 15.0385 8.625 15.0385H5.75C5.22073 15.0385 4.79167 14.6424 4.79167 14.1538ZM5.75 16.8077C5.22073 16.8077 4.79167 17.2037 4.79167 17.6923C4.79167 18.1809 5.22073 18.5769 5.75 18.5769H8.625C9.15427 18.5769 9.58333 18.1809 9.58333 17.6923C9.58333 17.2037 9.15427 16.8077 8.625 16.8077H5.75ZM13.4167 14.1538C13.4167 13.6653 13.8457 13.2692 14.375 13.2692H17.25C17.7793 13.2692 18.2083 13.6653 18.2083 14.1538C18.2083 14.6424 17.7793 15.0385 17.25 15.0385H14.375C13.8457 15.0385 13.4167 14.6424 13.4167 14.1538ZM14.375 16.8077C13.8457 16.8077 13.4167 17.2037 13.4167 17.6923C13.4167 18.1809 13.8457 18.5769 14.375 18.5769H17.25C17.7793 18.5769 18.2083 18.1809 18.2083 17.6923C18.2083 17.2037 17.7793 16.8077 17.25 16.8077H14.375Z" fill="#D5D5D5"/>
<path d="M6.70833 0.884615C6.70833 0.396056 7.13739 0 7.66667 0C8.19594 0 8.625 0.396056 8.625 0.884615V4.42308C8.625 4.91164 8.19594 5.30769 7.66667 5.30769C7.13739 5.30769 6.70833 4.91164 6.70833 4.42308V0.884615Z" fill="#D5D5D5"/>
</svg>
