<svg width="91" height="51" viewBox="0 0 91 51" fill="none" xmlns="http://www.w3.org/2000/svg">
<path d="M49.564 18.3302H52.205C52.345 18.3302 52.4793 18.2745 52.5783 18.1755C52.6774 18.0765 52.733 17.9422 52.733 17.8022V14.2432C52.7333 14.1097 52.6831 13.9812 52.5923 13.8833C52.5015 13.7855 52.3771 13.7258 52.244 13.7162C51.4 13.6572 49.763 13.5762 48.582 13.5762C45.338 13.5762 43.226 15.5202 43.226 19.0522V22.5522H39.526C39.4566 22.5522 39.388 22.5658 39.3239 22.5924C39.2599 22.6189 39.2017 22.6578 39.1526 22.7068C39.1036 22.7558 39.0647 22.8141 39.0382 22.8781C39.0116 22.9422 38.998 23.0108 38.998 23.0802V26.7802C38.998 26.8495 39.0116 26.9182 39.0382 26.9822C39.0647 27.0463 39.1036 27.1045 39.1526 27.1535C39.2017 27.2026 39.2599 27.2414 39.3239 27.268C39.388 27.2945 39.4566 27.3082 39.526 27.3082H43.226V37.3452C43.226 37.4852 43.2816 37.6195 43.3806 37.7185C43.4797 37.8175 43.614 37.8732 43.754 37.8732H47.454C47.594 37.8732 47.7283 37.8175 47.8273 37.7185C47.9264 37.6195 47.982 37.4852 47.982 37.3452V27.3092H51.797C51.927 27.3092 52.0525 27.2613 52.1494 27.1746C52.2462 27.0878 52.3077 26.9684 52.322 26.8392L52.733 23.1392C52.7411 23.0654 52.7336 22.9907 52.711 22.92C52.6883 22.8493 52.651 22.7842 52.6014 22.7288C52.5519 22.6735 52.4912 22.6293 52.4234 22.599C52.3557 22.5688 52.2822 22.5531 52.208 22.5532H47.979V19.9142C47.9793 19.494 48.1464 19.0911 48.4436 18.7941C48.7408 18.497 49.1438 18.3302 49.564 18.3302Z" fill="#131C1B"/>
</svg>
