<svg width="91" height="51" viewBox="0 0 91 51" fill="none" xmlns="http://www.w3.org/2000/svg">
<path d="M58.568 23.3806H57.529V23.3276H45.91V28.4916H53.21C52.658 30.0593 51.6168 31.408 50.2401 32.339C48.8633 33.2701 47.2238 33.734 45.5634 33.6625C43.9029 33.5909 42.3094 32.9877 41.0178 31.9417C39.7262 30.8958 38.8049 29.4625 38.3898 27.8531C37.9747 26.2438 38.0877 24.5437 38.7122 23.0035C39.3367 21.4633 40.4396 20.1645 41.8583 19.2987C43.2769 18.4329 44.9363 18.0459 46.5916 18.1948C48.2469 18.3437 49.8106 19.0206 51.052 20.1256L54.7 16.4746C52.4502 14.3875 49.5292 13.1723 46.4629 13.0477C43.3966 12.9232 40.3866 13.8976 37.975 15.7953C35.5634 17.6931 33.9086 20.3896 33.3087 23.3992C32.7088 26.4088 33.2032 29.5337 34.7028 32.2111C36.2024 34.8886 38.6087 36.9426 41.4884 38.0033C44.368 39.064 47.5318 39.0617 50.4098 37.9967C53.2879 36.9318 55.6912 34.8742 57.1869 32.1946C58.6826 29.5149 59.1723 26.3893 58.568 23.3806Z" fill="#131C1B"/>
<path d="M34.483 19.8996L38.727 23.0116C39.1894 21.86 39.9223 20.8367 40.8637 20.0282C41.8052 19.2197 42.9274 18.6498 44.1356 18.3666C45.3438 18.0834 46.6025 18.0953 47.8051 18.4013C49.0077 18.7073 50.119 19.2984 51.045 20.1246L54.696 16.4736C53.2469 15.1179 51.5043 14.1153 49.604 13.5438C47.7038 12.9724 45.6972 12.8476 43.7408 13.1792C41.7843 13.5108 39.9309 14.2899 38.3251 15.4556C36.7192 16.6213 35.4044 18.1421 34.483 19.8996Z" fill="#131C1B"/>
<path d="M45.91 38.8202C49.1119 38.8212 52.1989 37.6274 54.567 35.4722L50.567 32.0912C49.5998 32.8244 48.4735 33.3193 47.2793 33.5359C46.0852 33.7525 44.8568 33.6847 43.6937 33.338C42.5306 32.9912 41.4656 32.3754 40.585 31.5403C39.7044 30.7051 39.0329 29.6743 38.625 28.5312L34.422 31.7722C35.501 33.8919 37.145 35.672 39.1724 36.9158C41.1997 38.1596 43.5315 38.8187 45.91 38.8202Z" fill="#131C1B"/>
<path d="M58.568 23.3811H57.529V23.3281H45.91V28.4921H53.21C52.7005 29.9242 51.7827 31.1757 50.57 32.0921L54.57 35.4731C55.9276 34.2818 57.0108 32.8103 57.7452 31.1601C58.4796 29.5099 58.8476 27.7202 58.824 25.9141C58.8225 25.0634 58.7368 24.2149 58.568 23.3811Z" fill="#131C1B"/>
</svg>
