<svg width="21" height="21" viewBox="0 0 21 21" fill="none" xmlns="http://www.w3.org/2000/svg">
<path d="M0.643274 17.0015C-0.256084 12.8916 -0.0129139 9.24012 0.19366 7.86842C0.341183 6.88885 5.55385 2.88348 8.522 0.673561C9.72342 -0.220949 11.3571 -0.224994 12.5624 0.66434C15.5555 2.87291 20.8192 6.88955 20.884 7.86842C20.8861 7.8993 20.8882 7.93134 20.8904 7.96451C20.9862 9.40222 21.2248 12.9843 20.434 17.0015C19.9845 19.2848 18.652 20.3155 15.9361 20.6547C15.7424 20.6789 15.5491 20.7018 15.3564 20.7235C15.0989 20.7524 14.875 20.5495 14.875 20.2898V14.0998C14.875 12.6469 13.6997 11.469 12.25 11.469L8.75 11.469C7.30025 11.469 6.125 12.6469 6.125 14.0998L6.125 20.2824C6.125 20.5426 5.90018 20.7457 5.64228 20.7158C5.47544 20.6964 5.30839 20.6761 5.14111 20.6547C2.42607 20.3084 1.13934 19.2684 0.643274 17.0015Z" fill="#F2B15A"/>
<path d="M7.875 20.5048C7.875 20.7362 8.05443 20.9281 8.28501 20.9404C9.75841 21.0193 11.2279 21.0199 12.7144 20.942C12.9452 20.9299 13.125 20.738 13.125 20.5063L13.125 14.0998C13.125 13.6155 12.7332 13.2229 12.25 13.2229L8.75 13.2229C8.26675 13.2229 7.875 13.6155 7.875 14.0998L7.875 20.5048Z" fill="#F2B15A"/>
</svg>
