<svg width="18" height="21" viewBox="0 0 18 21" fill="none" xmlns="http://www.w3.org/2000/svg">
<path d="M17 17.3178C17 17.7803 16.6957 18.2361 16.1124 18.6473C15.5291 19.0585 14.6836 19.4131 13.6464 19.6818C12.6092 19.9504 11.4103 20.1252 10.1494 20.1917C8.88852 20.2581 7.60213 20.2143 6.39733 20.0638C5.19253 19.9133 4.10416 19.6606 3.2228 19.3266C2.34145 18.9926 1.69261 18.587 1.33029 18.1436C0.967966 17.7002 0.902641 17.2318 1.13975 16.7773" stroke="#D5D5D5" stroke-width="1.5" stroke-linecap="round"/>
<path fill-rule="evenodd" clip-rule="evenodd" d="M9 0C3.99693 0 0.612559 4.2198 2.55725 8.03314L5.34098 13.4917C5.96166 14.7088 7.40318 15.5 9 15.5C10.5968 15.5 12.0383 14.7088 12.659 13.4917L15.4427 8.03314C17.3874 4.21981 14.0031 0 9 0ZM7.75 5.16753C7.75 4.73192 8.20048 4.19531 9 4.19531C9.79952 4.19531 10.25 4.73192 10.25 5.16753C10.25 5.60315 9.79952 6.13976 9 6.13976C8.20048 6.13976 7.75 5.60315 7.75 5.16753ZM9 2.69531C7.59038 2.69531 6.25 3.70084 6.25 5.16753C6.25 6.63423 7.59038 7.63976 9 7.63976C10.4096 7.63976 11.75 6.63423 11.75 5.16753C11.75 3.70084 10.4096 2.69531 9 2.69531Z" fill="#D5D5D5"/>
</svg>
