<svg width="12" height="12" viewBox="0 0 12 12" fill="none" xmlns="http://www.w3.org/2000/svg">
<path d="M1.9734 6.659C1.92864 6.78121 1.83799 6.88115 1.72071 6.93758C1.60343 6.99401 1.46877 7.00249 1.34534 6.96122C1.22191 6.91995 1.11944 6.83217 1.0597 6.71654C0.999955 6.60092 0.987652 6.46655 1.0254 6.342C1.04318 6.28694 1.06388 6.23186 1.0874 6.179C1.1274 6.084 1.1864 5.953 1.2674 5.798C1.4324 5.488 1.6894 5.075 2.0684 4.662C2.8334 3.827 4.0864 3 5.9994 3C7.9124 3 9.1654 3.827 9.9304 4.662C10.3387 5.10998 10.6699 5.62261 10.9104 6.179L10.9564 6.292C10.9594 6.3 10.9694 6.352 10.9794 6.402L10.9994 6.5C10.9994 6.5 11.0834 6.833 10.6574 6.974C10.5319 7.0159 10.395 7.00638 10.2766 6.94753C10.1581 6.88867 10.0678 6.78529 10.0254 6.66V6.657L10.0194 6.641C9.96916 6.51254 9.91174 6.38701 9.8474 6.265C9.66959 5.92952 9.44983 5.61802 9.1934 5.338C8.5834 4.673 7.5864 4 5.9994 4C4.4124 4 3.4154 4.673 2.8054 5.338C2.47514 5.70007 2.20657 6.11391 2.0104 6.563C1.99991 6.58881 1.98991 6.61481 1.9804 6.641L1.9734 6.659ZM3.9994 7C3.9994 6.46957 4.21012 5.96086 4.58519 5.58579C4.96026 5.21071 5.46897 5 5.9994 5C6.52984 5 7.03854 5.21071 7.41362 5.58579C7.78869 5.96086 7.9994 6.46957 7.9994 7C7.9994 7.53043 7.78869 8.03914 7.41362 8.41421C7.03854 8.78929 6.52984 9 5.9994 9C5.46897 9 4.96026 8.78929 4.58519 8.41421C4.21012 8.03914 3.9994 7.53043 3.9994 7Z" fill="black"/>
</svg>
