<svg width="13" height="13" viewBox="0 0 13 13" fill="none" xmlns="http://www.w3.org/2000/svg">
<g clip-path="url(#clip0_1067_587)">
<path d="M8.22301 8.79647L11.4941 12.0684C11.5319 12.1062 11.5767 12.1361 11.6261 12.1566C11.6755 12.177 11.7283 12.1875 11.7818 12.1875C11.8352 12.1875 11.8881 12.177 11.9374 12.1566C11.9868 12.1361 12.0316 12.1062 12.0694 12.0684C12.1072 12.0306 12.1371 11.9858 12.1576 11.9364C12.178 11.8871 12.1885 11.8342 12.1885 11.7808C12.1885 11.7274 12.178 11.6745 12.1576 11.6251C12.1371 11.5758 12.1072 11.5309 12.0694 11.4932L1.50689 0.930662C1.46912 0.89289 1.42428 0.862928 1.37492 0.842486C1.32557 0.822045 1.27268 0.811523 1.21926 0.811523C1.16585 0.811523 1.11295 0.822045 1.0636 0.842486C1.01425 0.862928 0.96941 0.89289 0.931638 0.930662C0.893867 0.968433 0.863905 1.01327 0.843463 1.06263C0.823021 1.11198 0.8125 1.16487 0.8125 1.21829C0.8125 1.2717 0.823021 1.3246 0.843463 1.37395C0.863905 1.4233 0.893867 1.46814 0.931638 1.50591L3.55601 4.13029C3.19882 4.38332 2.87742 4.6834 2.60051 5.02241C2.2084 5.50354 1.90146 6.04818 1.69295 6.63279C1.67589 6.68235 1.65476 6.7506 1.65476 6.7506L1.64014 6.80097C1.64014 6.80097 1.57839 7.20479 1.92858 7.29741C2.03265 7.32492 2.1434 7.30999 2.23648 7.25591C2.32956 7.20183 2.39737 7.11302 2.42501 7.00897L2.42583 7.00654L2.43233 6.98622L2.46076 6.89766C2.63785 6.40409 2.89748 5.94417 3.22858 5.53754C3.48886 5.21762 3.79689 4.93974 4.14183 4.71366L5.42395 5.99579C5.16522 6.15795 4.94638 6.37636 4.78371 6.63477C4.62103 6.89318 4.51871 7.18494 4.48435 7.48835C4.44999 7.79176 4.48448 8.09901 4.58525 8.38725C4.68601 8.67549 4.85047 8.93731 5.06639 9.15322C5.2823 9.36914 5.54412 9.5336 5.83236 9.63437C6.1206 9.73514 6.42785 9.76962 6.73126 9.73526C7.03468 9.7009 7.32643 9.59858 7.58484 9.43591C7.84325 9.27323 8.06166 9.05439 8.22382 8.79566L8.22301 8.79647ZM5.13551 3.41122L5.82939 4.1051C6.05192 4.07619 6.27611 4.0618 6.50051 4.06204C8.16126 4.06204 9.17039 4.80304 9.77326 5.53835C10.1044 5.94494 10.3641 6.40487 10.5411 6.89847C10.5549 6.93747 10.5638 6.96754 10.5695 6.98704L10.576 7.00735V7.00979L10.5768 7.0106C10.6069 7.112 10.6753 7.19767 10.7675 7.24942C10.8598 7.30117 10.9686 7.31491 11.0708 7.28772C11.173 7.26053 11.2605 7.19455 11.3149 7.10381C11.3692 7.01307 11.386 6.90472 11.3617 6.80179V6.79935L11.3609 6.7961L11.3576 6.78554C11.3436 6.73422 11.3273 6.68353 11.3089 6.6336C11.1004 6.04899 10.7934 5.50435 10.4013 5.02322C9.67332 4.13354 8.44726 3.24954 6.50214 3.24954C6.00001 3.24954 5.54501 3.30804 5.13551 3.41122Z" fill="black"/>
</g>
<defs>
<clipPath id="clip0_1067_587">
<rect width="13" height="13" fill="white"/>
</clipPath>
</defs>
</svg>
