<svg width="8" height="8" viewBox="0 0 8 8" fill="none" xmlns="http://www.w3.org/2000/svg">
<path d="M6.22275 7.99793C6.15864 7.99821 6.09541 7.98233 6.03836 7.95164L3.99399 6.82796L1.94962 7.95164C1.88323 7.98829 1.80839 8.00465 1.73359 7.99886C1.65879 7.99307 1.58703 7.96537 1.52649 7.9189C1.46594 7.87243 1.41902 7.80905 1.39107 7.73598C1.36312 7.66291 1.35526 7.58307 1.36838 7.50554L1.76923 5.13613L0.117703 3.45272C0.0661764 3.39874 0.0296239 3.33104 0.0119686 3.2569C-0.00568667 3.18275 -0.00377817 3.10496 0.0174893 3.03187C0.0407229 2.95707 0.0834608 2.89061 0.140853 2.84003C0.198245 2.78944 0.267994 2.75676 0.342183 2.74569L2.62707 2.39638L3.63322 0.237407C3.66604 0.166253 3.71729 0.106245 3.7811 0.0642574C3.8449 0.0222695 3.91868 0 3.99399 0C4.06929 0 4.14307 0.0222695 4.20688 0.0642574C4.27068 0.106245 4.32193 0.166253 4.35476 0.237407L5.37293 2.39217L7.65782 2.74148C7.73201 2.75255 7.80175 2.78524 7.85915 2.83582C7.91654 2.8864 7.95928 2.95287 7.98251 3.02766C8.00378 3.10075 8.00569 3.17855 7.98803 3.25269C7.97038 3.32683 7.93382 3.39453 7.8823 3.44851L6.23077 5.13193L6.63162 7.50133C6.64593 7.58023 6.63844 7.66178 6.61003 7.73635C6.58162 7.81093 6.53347 7.87541 6.47128 7.92218C6.39869 7.97559 6.31129 8.00223 6.22275 7.99793ZM3.99399 5.93576C4.05824 5.93405 4.12181 5.95001 4.17838 5.98205L5.68961 6.82375L5.40099 5.05196C5.3898 4.98431 5.39453 4.91481 5.4148 4.84952C5.43506 4.78424 5.47023 4.72514 5.51724 4.6774L6.71981 3.44431L5.03621 3.18338C4.97448 3.17033 4.91653 3.14219 4.86709 3.10124C4.81764 3.0603 4.77808 3.00769 4.75161 2.9477L3.99399 1.3695L3.23637 2.9477C3.20737 3.00818 3.16489 3.06042 3.11255 3.09998C3.06021 3.13954 2.99955 3.16527 2.93573 3.17496L1.25213 3.43589L2.4547 4.66899C2.50171 4.71673 2.53688 4.77582 2.55714 4.84111C2.5774 4.90639 2.58214 4.97589 2.57095 5.04355L2.28233 6.79429L3.79356 5.95259C3.85759 5.9276 3.92698 5.92177 3.99399 5.93576Z" fill="#A09EA6"/>
</svg>
