<svg width="27" height="53" viewBox="0 0 27 53" fill="none" xmlns="http://www.w3.org/2000/svg">
<path d="M3.2961 10.4121C1.81397 11.9071 0.762053 13.5457 0.380282 14.9869C-0.543791 18.4743 0.380283 19.6225 1.40476 25.7483C2.02353 21.1531 2.00835 17.0295 4.56108 15.1311C3.94932 13.9093 3.40001 12.1312 3.2961 10.4121Z" fill="#131C1B"/>
<path d="M5.1179 8.82747C4.79042 10.5834 5.48567 13.0445 6.13012 14.3596C8.21527 13.8238 8.91635 15.8091 12.6255 16.0864V5.78906C9.87603 6.00622 7.24683 7.22216 5.1179 8.82747Z" fill="#131C1B"/>
<path d="M23.7035 10.4121C25.1856 11.9071 26.2375 13.5457 26.6193 14.9869C27.5433 18.4743 26.6193 19.6225 25.5948 25.7483C24.976 21.1531 24.9912 17.0295 22.4385 15.1311C23.0502 13.9093 23.5996 12.1312 23.7035 10.4121Z" fill="#131C1B"/>
<path d="M21.8826 8.82747C22.2101 10.5834 21.5148 13.0445 20.8704 14.3596C18.7852 13.8238 18.0841 15.8091 14.375 16.0864V5.78906C17.1245 6.00622 19.7537 7.22216 21.8826 8.82747Z" fill="#131C1B"/>
<path d="M25.1402 32.9062C23.3054 35.7047 22.3545 39.1395 20.4836 38.7834C18.6127 38.4273 16.3081 36.7806 13.509 36.6913C10.7099 36.7806 8.40528 38.4273 6.53437 38.7834C4.66346 39.1395 3.71253 35.7053 1.87781 32.9062C0.417275 42.4488 1.30224 47.0627 7.8478 49.7334C8.58216 51.6697 11.3094 52.5377 13.5084 52.5377C15.7074 52.5377 18.4352 51.6697 19.1696 49.7334C25.7157 47.0627 26.6007 42.4488 25.1402 32.9062ZM13.5084 43.3086C10.4332 44.7966 8.8501 43.1983 9.29083 41.6922C9.67377 40.3841 11.9212 40.8978 13.5084 39.7816C15.0956 40.8978 17.343 40.3835 17.726 41.6922C18.1667 43.1983 16.5836 44.7966 13.5084 43.3086Z" fill="#131C1B"/>
<path d="M13.4997 3.99167C14.5481 3.99167 15.5959 4.12826 16.6239 4.37636C17.2765 2.12951 17.3221 0 13.4997 0C9.6773 0 9.72283 2.12951 10.3755 4.37636C11.4034 4.12826 12.4513 3.99167 13.4997 3.99167Z" fill="#131C1B"/>
</svg>
