<svg width="42" height="42" viewBox="0 0 42 42" fill="none" xmlns="http://www.w3.org/2000/svg">
<path d="M41.8153 22.8617V22.7697C41.8164 22.312 41.7267 21.8586 41.5515 21.4357C41.3762 21.0128 41.1189 20.6289 40.7943 20.3062L39.5204 19.0316L36.1558 15.6663C35.8329 15.3417 35.4488 15.0844 35.0258 14.9093C34.6029 14.7342 34.1493 14.6447 33.6915 14.646H31.9814C32.447 14.193 32.8172 13.6513 33.0699 13.0528C33.3225 12.4543 33.4527 11.8112 33.4525 11.1615V6.98015C33.4519 6.23628 33.2529 5.50603 32.8759 4.86473C32.499 4.22343 31.9578 3.6943 31.3082 3.3319C31.3887 2.92762 31.3785 2.51051 31.2784 2.11062C31.1783 1.71074 30.9907 1.33803 30.7292 1.01935C30.4677 0.700675 30.1388 0.443957 29.7662 0.267691C29.3936 0.0914256 28.9865 0 28.5742 0C28.162 0 27.7549 0.0914256 27.3823 0.267691C27.0096 0.443957 26.6807 0.700675 26.4193 1.01935C26.1578 1.33803 25.9702 1.71074 25.8701 2.11062C25.77 2.51051 25.7598 2.92762 25.8403 3.3319C25.1907 3.6943 24.6495 4.22343 24.2726 4.86473C23.8956 5.50603 23.6966 6.23628 23.696 6.98015V11.1615C23.6958 11.8112 23.8259 12.4543 24.0786 13.0528C24.3313 13.6513 24.7014 14.193 25.1671 14.646H23.4569C22.9991 14.6447 22.5456 14.7342 22.1226 14.9093C21.6997 15.0844 21.3156 15.3417 20.9927 15.6663L17.6281 19.0316L16.3542 20.3062C16.0296 20.6289 15.7723 21.0128 15.597 21.4357C15.4218 21.8586 15.3321 22.312 15.3332 22.7697V22.8617C15.3323 23.5497 15.536 24.2224 15.9186 24.7942L18.9097 29.2808H16.3228C16.2379 29.1183 16.14 28.9628 16.0301 28.816L14.497 26.772L13.2425 25.0994C12.917 24.6677 12.496 24.3171 12.0124 24.0753C11.5287 23.8335 10.9957 23.707 10.455 23.7056H5.18923C5.00529 23.384 4.75886 23.1024 4.46445 22.8774C4.17003 22.6524 3.83358 22.4886 3.4749 22.3956C3.11622 22.3026 2.74256 22.2824 2.37593 22.336C2.00929 22.3896 1.65708 22.516 1.34004 22.7078C1.023 22.8996 0.747537 23.1528 0.529862 23.4527C0.312187 23.7526 0.156703 24.0929 0.0725637 24.4538C-0.0115753 24.8146 -0.0226688 25.1887 0.0399363 25.5539C0.102541 25.9191 0.23758 26.2681 0.437101 26.5803C0.150555 27.2094 0.00203912 27.8926 0.00154168 28.5839V29.9777C0.0032296 30.96 0.301157 31.919 0.856404 32.7294C1.41165 33.5398 2.1984 34.1638 3.11388 34.5201C2.90323 34.8601 2.79083 35.2518 2.78912 35.6518C2.79166 35.8545 2.8231 36.0559 2.88251 36.2497H0.698437C0.513609 36.2497 0.336351 36.3232 0.205658 36.4539C0.0749643 36.5846 0.00154168 36.7618 0.00154168 36.9466V41.128C0.00154168 41.3128 0.0749643 41.4901 0.205658 41.6208C0.336351 41.7515 0.513609 41.8249 0.698437 41.8249H41.1184C41.3032 41.8249 41.4804 41.7515 41.6111 41.6208C41.7418 41.4901 41.8153 41.3128 41.8153 41.128V27.887C41.8153 27.7022 41.7418 27.5249 41.6111 27.3942C41.4804 27.2635 41.3032 27.1901 41.1184 27.1901H39.6333L41.2299 24.7949C41.6124 24.2228 41.8162 23.5499 41.8153 22.8617ZM35.5432 21.9035L36.0958 22.4561L36.7858 23.146L35.5432 25.6319V21.9035ZM25.0898 11.1615V9.76773H26.6034C27.8101 9.77126 28.9833 9.37143 29.9367 8.63179L30.0524 8.74748C30.5947 9.28578 31.3004 9.62892 32.0587 9.72313V11.1615C32.0587 12.0857 31.6916 12.972 31.0381 13.6254C30.3847 14.2789 29.4984 14.646 28.5742 14.646C27.6501 14.646 26.7638 14.2789 26.1103 13.6254C25.4569 12.972 25.0898 12.0857 25.0898 11.1615ZM34.0672 28.5839L33.7187 29.2808H33.4525C32.7132 29.2808 32.0042 29.5745 31.4814 30.0973C30.9586 30.62 30.6649 31.3291 30.6649 32.0684C30.6649 32.2532 30.7384 32.4305 30.869 32.5612C30.9997 32.6919 31.177 32.7653 31.3618 32.7653H34.8463V36.2497H20.9084C20.7576 36.2497 20.6109 36.2987 20.4903 36.3891L17.9334 38.307L4.86587 36.44C4.666 36.4121 4.4842 36.3092 4.35727 36.1523C4.23034 35.9954 4.16776 35.7962 4.1822 35.5949C4.19663 35.3936 4.287 35.2053 4.43502 35.0681C4.58304 34.9309 4.77765 34.8551 4.97946 34.856H16.727C16.8254 34.856 16.9226 34.8352 17.0123 34.7949C17.102 34.7547 17.1822 34.6959 17.2476 34.6225L20.2317 31.2649L21.0255 32.4552C21.0891 32.5506 21.1754 32.6288 21.2765 32.6829C21.3777 32.737 21.4906 32.7653 21.6053 32.7653H25.7867C25.9715 32.7653 26.1488 32.6919 26.2794 32.5612C26.4101 32.4305 26.4836 32.2532 26.4836 32.0684C26.4836 31.3291 26.1899 30.62 25.6671 30.0973C25.1443 29.5745 24.4353 29.2808 23.696 29.2808H23.4298L23.0813 28.5839H34.0672ZM21.0527 22.4561L21.6053 21.9035V25.6319L20.3627 23.1481L21.0527 22.4561ZM16.727 22.8617V22.7697C16.7284 22.2155 16.9486 21.6843 17.3396 21.2916L18.1208 20.5104L19.5745 21.9634L19.0219 22.516C18.9184 22.6194 18.8501 22.7527 18.8266 22.897C18.8031 23.0413 18.8256 23.1894 18.8909 23.3203L22.3754 30.2892C22.4333 30.4051 22.5223 30.5025 22.6324 30.5705C22.7426 30.6386 22.8696 30.6746 22.9991 30.6746H23.696C23.9405 30.6747 24.1807 30.7392 24.3925 30.8615C24.6042 30.9838 24.78 31.1597 24.9023 31.3715H21.9753L17.0755 24.0213C16.8469 23.6779 16.7256 23.2742 16.727 22.8617ZM15.3332 30.9067V31.3715C15.3332 31.926 15.113 32.4577 14.7209 32.8498C14.3288 33.2419 13.797 33.4622 13.2425 33.4622H5.5767V30.9631L8.16009 28.3797C8.2908 28.2491 8.36424 28.0718 8.36428 27.887V27.1901H9.59361L10.8404 27.8173C10.9374 27.8643 11.044 27.8882 11.1519 27.887H13.591L14.9151 29.6522C15.1857 30.0146 15.3323 30.4544 15.3332 30.9067ZM1.39533 37.6435H4.09232C4.27512 37.7291 4.46918 37.7883 4.66865 37.8192L18.0219 39.7273C18.0546 39.732 18.0877 39.7343 18.1208 39.7342C18.2716 39.7342 18.4183 39.6853 18.539 39.5948L21.1405 37.6435H34.8463V40.4311H1.39533V37.6435ZM40.4215 22.8617C40.4229 23.2742 40.3016 23.6779 40.073 24.0213L35.1704 31.3715H32.2434C32.3659 31.1593 32.5422 30.9832 32.7545 30.8608C32.9667 30.7385 33.2075 30.6742 33.4525 30.6746H34.1494C34.2795 30.6753 34.4072 30.6396 34.518 30.5715C34.6289 30.5034 34.7185 30.4056 34.7766 30.2892L38.2611 23.3203C38.3264 23.1894 38.3489 23.0413 38.3254 22.897C38.3018 22.7527 38.2335 22.6194 38.1301 22.516L37.5774 21.9634L39.0277 20.5104L39.8089 21.2916C40.1999 21.6843 40.4201 22.2155 40.4215 22.7697V22.8617Z" fill="#95939A"/>
</svg>
