<svg width="42" height="43" viewBox="0 0 42 43" fill="none" xmlns="http://www.w3.org/2000/svg">
<path d="M41.5435 39.8858L39.5539 27.2868C39.3492 25.9903 38.2408 25.0488 36.9186 25.0488H0.650306C0.393282 25.0488 0.166735 25.1936 0.0600648 25.4255C-0.0471131 25.658 -0.00901671 25.9227 0.159623 26.1159L5.43979 32.1637C5.73846 33.0447 6.12248 33.8979 6.58776 34.7083C7.76012 36.7517 9.42721 38.4995 11.4199 39.7763L11.0496 41.5085C11.0141 41.6548 11.0461 41.8061 11.1385 41.9256C11.234 42.0491 11.3783 42.1197 11.5347 42.1197H27.3132C27.4702 42.1197 27.6145 42.0491 27.7094 41.9256C27.8019 41.8061 27.8344 41.6548 27.7988 41.5085L27.428 39.7763C29.4207 38.4995 31.0878 36.7517 32.2602 34.7083C33.2969 32.9015 33.9298 30.8859 34.1178 28.8133H35.984L38.2906 38.736C38.5517 39.8595 39.5539 40.6336 40.6891 40.6336C40.7877 40.6336 40.8872 40.6281 40.9873 40.616C41.3088 40.5771 41.5511 40.3053 41.5511 39.9846C41.5511 39.9498 41.5486 39.9175 41.5435 39.8858ZM25.6436 36.8283L25.2423 36.1854C27.5113 34.7885 29.1393 32.6191 29.8271 30.076L30.5626 30.2722C29.8246 33.0013 28.0777 35.3296 25.6436 36.8283Z" fill="#95939A"/>
<path d="M40.496 0.814488L40.495 0.814992L28.2894 10.945C27.147 11.893 26.3145 13.1411 25.8807 14.5551L25.4738 15.8794C25.0385 17.2984 24.1887 18.5339 23.0158 19.4527C23.0047 19.4613 22.994 19.4698 22.9828 19.4784L22.7685 19.1642L22.5546 18.8501L16.4404 9.87792L16.2265 9.56426L16.0127 9.25009C17.1165 8.61066 18.364 8.2728 19.6491 8.26725C19.863 8.26674 20.0834 8.27481 20.3039 8.29347L21.6936 8.41147C23.0743 8.52897 24.4615 8.27128 25.7049 7.66665C25.7913 7.6253 25.8756 7.58193 25.9645 7.53453L39.9769 0.0555459C40.1867 -0.0569087 40.4467 0.00612607 40.5808 0.201787C40.7154 0.398456 40.6789 0.661691 40.496 0.814488Z" fill="#95939A"/>
<path d="M22.1476 19.602L22.3609 19.9157L21.1352 20.7387C21.059 20.7896 20.9711 20.8164 20.8812 20.8164C20.8518 20.8164 20.8228 20.8133 20.7933 20.8078C20.674 20.7851 20.5709 20.7175 20.5028 20.6172L20.4596 20.5536L16.4448 23.25L15.8754 22.4144L19.8897 19.718L19.2949 18.8451L15.2805 21.5415L14.7111 20.7059L18.7255 18.0095L18.1302 17.1361L14.1158 19.8325L13.5469 18.9974L17.5612 16.301L16.9659 15.4276L12.9516 18.124L12.3822 17.2889L16.3965 14.5925L15.8017 13.7191L11.7874 16.4155L11.2179 15.5804L15.2323 12.884L14.6375 12.0106L10.6231 14.707L10.0537 13.8719L14.0681 11.1755L14.0244 11.1115C13.8837 10.9047 13.9385 10.6233 14.1463 10.4831L15.372 9.66016L15.5853 9.97331L15.7987 10.2865L21.9342 19.2889L22.1476 19.602Z" fill="#95939A"/>
</svg>
