<svg width="35" height="47" viewBox="0 0 35 47" fill="none" xmlns="http://www.w3.org/2000/svg">
<path d="M17.4846 3.29481C19.9922 3.29481 22.4997 3.87796 24.7934 4.96651C24.1617 2.13822 21.1682 0 17.5818 0C14.0149 0 11.0408 2.10907 10.3799 4.90819C10.4478 4.87904 10.516 4.84026 10.584 4.811C12.7804 3.80021 15.1034 3.29481 17.4846 3.29481Z" fill="#95939A"/>
<path d="M13.3733 9.63204C11.6336 10.429 10.0688 11.537 8.72754 12.8977C16.1994 8.13217 28.8391 10.0898 32.2869 20.4981C32.6756 20.6536 33.045 20.8577 33.3851 21.1298C33.3364 8.36339 20.7537 6.2173 13.3733 9.63204Z" fill="#95939A"/>
<path d="M12.7707 8.30925C14.9575 7.28873 17.3193 6.77361 19.7588 6.77361C22.8301 6.77361 25.7945 7.61918 28.3992 9.17425C24.113 5.09219 17.4068 3.28442 11.1962 6.13215C5.65628 8.67858 1.79776 14.4323 1.77832 21.1289C2.11849 20.8567 2.48782 20.6526 2.87659 20.4971C4.15048 16.6405 5.66143 11.5541 12.7707 8.30925Z" fill="#95939A"/>
<path d="M11.4785 27.5362C11.4877 27.9487 11.5335 28.3611 11.7076 28.7735C11.8908 28.3611 11.9275 27.9488 11.9368 27.5362C11.9275 27.1237 11.8909 26.7112 11.7076 26.2988C11.5335 26.7113 11.4877 27.1237 11.4785 27.5362Z" fill="#95939A"/>
<path d="M11.4785 22.8898C11.4877 23.3022 11.5335 23.7146 11.7076 24.1271C11.8908 23.7147 11.9275 23.3022 11.9368 22.8898C11.9275 22.4773 11.8909 22.0648 11.7076 21.6523C11.5335 22.0649 11.4877 22.4773 11.4785 22.8898Z" fill="#95939A"/>
<path d="M9.92969 22.1289C9.97556 22.5688 10.1496 22.9539 10.3513 23.3112C10.5621 23.6687 10.8004 23.9987 11.167 24.2736C11.112 23.8246 10.9471 23.4487 10.7454 23.0821C10.5345 22.7338 10.2871 22.3947 9.92969 22.1289Z" fill="#95939A"/>
<path d="M12.2578 26.1523C12.3036 26.6014 12.4778 26.9772 12.6794 27.3437C12.8902 27.6922 13.1285 28.0312 13.4951 28.297C13.4401 27.8571 13.2751 27.4722 13.0734 27.1145C12.8536 26.7572 12.6153 26.4272 12.2578 26.1523Z" fill="#95939A"/>
<path d="M24.9445 23.3112C25.1462 22.9539 25.3111 22.5688 25.3662 22.1289C24.9996 22.3947 24.7612 22.7338 24.5505 23.0822C24.3489 23.4487 24.1747 23.8246 24.1289 24.2737C24.4863 23.9986 24.7245 23.6687 24.9445 23.3112Z" fill="#95939A"/>
<path d="M13.8428 26.1815C13.4762 25.9797 13.1004 25.8148 12.6514 25.7598C12.9172 26.1173 13.2563 26.3647 13.6137 26.5756C13.9711 26.7773 14.347 26.9421 14.7961 26.9972C14.5303 26.6305 14.1912 26.3922 13.8428 26.1815Z" fill="#95939A"/>
<path d="M10.3513 27.1145C10.1496 27.4721 9.97556 27.857 9.92969 28.297C10.2871 28.0312 10.5346 27.6922 10.7453 27.3437C10.947 26.9772 11.112 26.6014 11.1669 26.1523C10.8004 26.4272 10.5622 26.7572 10.3513 27.1145Z" fill="#95939A"/>
<path d="M10.7639 25.7598C10.324 25.8056 9.93901 25.9797 9.58154 26.1815C9.22406 26.3923 8.8941 26.6397 8.61914 26.9972C9.06826 26.9422 9.44401 26.7773 9.81071 26.5756C10.159 26.3647 10.4981 26.1173 10.7639 25.7598Z" fill="#95939A"/>
<path d="M12.6514 24.669C13.1004 24.614 13.4762 24.449 13.8428 24.2474C14.1911 24.0366 14.5303 23.7891 14.7961 23.4316C14.3471 23.4866 13.9711 23.6516 13.6137 23.8533C13.2562 24.0641 12.9172 24.3115 12.6514 24.669Z" fill="#95939A"/>
<path d="M13.0734 23.3112C13.2751 22.9539 13.4401 22.5688 13.4951 22.1289C13.1285 22.3947 12.8901 22.7338 12.6794 23.0822C12.4778 23.4487 12.3036 23.8246 12.2578 24.2737C12.6152 23.9986 12.8535 23.6687 13.0734 23.3112Z" fill="#95939A"/>
<path d="M12.7979 25.2083C13.2102 25.3915 13.6227 25.4283 14.0352 25.4375C14.4477 25.4375 14.8602 25.3916 15.2726 25.2083C14.8602 25.0341 14.4477 24.9883 14.0352 24.9883C13.6227 24.9974 13.2102 25.0341 12.7979 25.2083Z" fill="#95939A"/>
<path d="M10.6264 25.2083C10.2139 25.0341 9.79231 24.9883 9.37983 24.9883C8.96745 24.9975 8.55496 25.0342 8.14258 25.2083C8.55496 25.3915 8.96745 25.4283 9.37983 25.4375C9.79231 25.4375 10.2139 25.3915 10.6264 25.2083Z" fill="#95939A"/>
<path d="M9.58154 24.2474C9.93901 24.449 10.324 24.6231 10.7639 24.669C10.4981 24.3115 10.159 24.0642 9.81071 23.8533C9.44401 23.6516 9.06826 23.4866 8.61914 23.4316C8.89419 23.7891 9.22406 24.0366 9.58154 24.2474Z" fill="#95939A"/>
<path d="M31.1228 21.6796C29.3555 15.2376 23.9676 11.9141 17.5874 11.9141C11.2072 11.9141 5.81326 15.2376 4.04379 21.6795C1.97292 21.9767 0.351562 24.6524 0.351562 27.9122C0.351562 31.3709 2.17624 34.1747 4.42721 34.1747C4.5142 34.1747 4.59934 34.163 4.68506 34.1547C6.90881 40.9758 11.8488 46.6524 17.5874 46.6524C23.326 46.6524 28.2611 40.976 30.4822 34.1549C30.5674 34.163 30.652 34.1747 30.7385 34.1747C32.9894 34.1747 34.8142 31.3709 34.8142 27.9122C34.8141 24.6529 33.1933 21.9774 31.1228 21.6796ZM11.7122 29.4069C9.39333 29.4069 7.51451 27.5279 7.51451 25.2092C7.51451 22.8996 9.39343 21.0206 11.7122 21.0206C14.0219 21.0206 15.9008 22.8996 15.9008 25.2092C15.9009 27.528 14.0219 29.4069 11.7122 29.4069ZM19.3817 33.4772H15.9046C15.4295 33.4772 15.1272 32.7105 15.3647 32.095L17.1033 27.6351C17.3408 27.0087 17.9455 27.0087 18.1832 27.6351L19.9217 32.095C20.1592 32.7105 19.8569 33.4772 19.3817 33.4772ZM23.5833 29.4069C21.2644 29.4069 19.3855 27.5279 19.3855 25.2092C19.3855 22.8996 21.2645 21.0206 23.5833 21.0206C25.8929 21.0206 27.7718 22.8996 27.7718 25.2092C27.7718 27.528 25.8929 29.4069 23.5833 29.4069Z" fill="#95939A"/>
<path d="M23.3496 22.8898C23.3587 23.3022 23.4046 23.7146 23.5787 24.1271C23.762 23.7147 23.7986 23.3022 23.8079 22.8898C23.7986 22.4773 23.762 22.0648 23.5787 21.6523C23.4046 22.0649 23.3587 22.4773 23.3496 22.8898Z" fill="#95939A"/>
<path d="M24.1289 26.1523C24.1748 26.6014 24.3489 26.9772 24.5505 27.3437C24.7613 27.6922 24.9996 28.0312 25.3662 28.297C25.3111 27.8571 25.1462 27.4722 24.9445 27.1145C24.7246 26.7572 24.4864 26.4272 24.1289 26.1523Z" fill="#95939A"/>
<path d="M23.3496 27.5362C23.3587 27.9487 23.4046 28.3611 23.5787 28.7735C23.762 28.3611 23.7986 27.9488 23.8079 27.5362C23.7986 27.1237 23.762 26.7112 23.5787 26.2988C23.4046 26.7113 23.3587 27.1237 23.3496 27.5362Z" fill="#95939A"/>
<path d="M24.6689 25.2083C25.0813 25.3915 25.4938 25.4283 25.9063 25.4375C26.3188 25.4375 26.7313 25.3916 27.1436 25.2083C26.7313 25.0341 26.3188 24.9883 25.9063 24.9883C25.4938 24.9974 25.0813 25.0341 24.6689 25.2083Z" fill="#95939A"/>
<path d="M21.8008 22.1289C21.8467 22.5688 22.0207 22.9539 22.2224 23.3112C22.4332 23.6687 22.6716 23.9987 23.0381 24.2736C22.9831 23.8246 22.8182 23.4487 22.6165 23.0821C22.4057 22.7338 22.1582 22.3947 21.8008 22.1289Z" fill="#95939A"/>
<path d="M25.7139 26.1815C25.3474 25.9797 24.9715 25.8148 24.5225 25.7598C24.7883 26.1173 25.1274 26.3647 25.4849 26.5756C25.8423 26.7773 26.2182 26.9421 26.6672 26.9972C26.4013 26.6305 26.0623 26.3922 25.7139 26.1815Z" fill="#95939A"/>
<path d="M21.4526 24.2474C21.8101 24.449 22.1951 24.6231 22.635 24.669C22.3692 24.3115 22.03 24.0642 21.6818 23.8533C21.3151 23.6516 20.9394 23.4866 20.4902 23.4316C20.7652 23.7891 21.0952 24.0366 21.4526 24.2474Z" fill="#95939A"/>
<path d="M22.4975 25.2083C22.085 25.0341 21.6634 24.9883 21.251 24.9883C20.8386 24.9975 20.4262 25.0342 20.0137 25.2083C20.4262 25.3915 20.8386 25.4283 21.251 25.4375C21.6634 25.4375 22.0851 25.3915 22.4975 25.2083Z" fill="#95939A"/>
<path d="M24.5225 24.669C24.9715 24.614 25.3474 24.449 25.7139 24.2474C26.0623 24.0366 26.4014 23.7891 26.6672 23.4316C26.2182 23.4866 25.8423 23.6516 25.4849 23.8533C25.1274 24.0641 24.7883 24.3115 24.5225 24.669Z" fill="#95939A"/>
<path d="M22.635 25.7598C22.1951 25.8056 21.8101 25.9797 21.4526 26.1815C21.0952 26.3923 20.7652 26.6397 20.4902 26.9972C20.9394 26.9422 21.3151 26.7773 21.6818 26.5756C22.03 26.3647 22.3691 26.1173 22.635 25.7598Z" fill="#95939A"/>
<path d="M22.2224 27.1145C22.0207 27.4721 21.8467 27.857 21.8008 28.297C22.1582 28.0312 22.4057 27.6922 22.6165 27.3437C22.8182 26.9772 22.9831 26.6014 23.0381 26.1523C22.6715 26.4272 22.4332 26.7572 22.2224 27.1145Z" fill="#95939A"/>
</svg>
